<?xml version="1.0" encoding="UTF-8"?>
<svg id="Layer_2" data-name="Layer 2" xmlns="http://www.w3.org/2000/svg" viewBox="0 0 208 207.47">
  <defs>
    <style>
      .cls-1 {
        stroke-linejoin: round;
      }

      .cls-1, .cls-2 {
        fill: none;
        stroke: #000;
        stroke-width: 8px;
      }

      .cls-3 {
        fill: #000;
        stroke-width: 0px;
      }

      .cls-2 {
        stroke-miterlimit: 10;
      }
    </style>
  </defs>
  <g id="Icons_Updated_" data-name="Icons (Updated)">
    <g>
      <g>
        <path class="cls-2" d="M175.53,56.41c0-5.06,3.14-9.39,7.58-11.15,1.75-.69,2.68-2.6,2.15-4.41-1.08-3.64-2.54-7.13-4.32-10.41-.9-1.65-2.91-2.34-4.63-1.59-4.38,1.9-9.66,1.06-13.24-2.52-3.58-3.58-4.42-8.86-2.52-13.24.75-1.72.06-3.73-1.59-4.63-3.28-1.78-6.77-3.23-10.41-4.32-1.8-.54-3.71.4-4.41,2.15-1.75,4.44-6.08,7.58-11.15,7.58s-9.39-3.14-11.15-7.58c-.69-1.75-2.6-2.68-4.41-2.15-3.64,1.08-7.13,2.54-10.41,4.32-1.65.9-2.34,2.91-1.59,4.63,1.9,4.38,1.06,9.66-2.52,13.24-3.58,3.58-8.86,4.42-13.24,2.52-1.72-.75-3.73-.06-4.63,1.59-1.78,3.28-3.23,6.77-4.32,10.41-.54,1.8.4,3.71,2.15,4.41,4.44,1.75,7.58,6.08,7.58,11.15s-3.14,9.39-7.58,11.15c-1.75.69-2.68,2.6-2.15,4.41,1.08,3.64,2.54,7.13,4.32,10.41.9,1.65,2.91,2.34,4.63,1.59,4.38-1.9,9.66-1.06,13.24,2.52,3.58,3.58,4.42,8.86,2.52,13.24-.75,1.72-.06,3.73,1.59,4.63,3.28,1.78,6.77,3.23,10.41,4.32,1.8.54,3.71-.4,4.41-2.15,1.75-4.44,6.08-7.58,11.15-7.58s9.39,3.14,11.15,7.58c.69,1.75,2.6,2.68,4.41,2.15,3.64-1.08,7.13-2.54,10.41-4.32,1.65-.9,2.34-2.91,1.59-4.63-1.9-4.38-1.06-9.66,2.52-13.24,3.58-3.58,8.86-4.42,13.24-2.52,1.72.75,3.73.06,4.63-1.59,1.78-3.28,3.23-6.77,4.32-10.41.54-1.8-.4-3.71-2.15-4.41-4.44-1.75-7.58-6.08-7.58-11.15Z"/>
        <circle class="cls-3" cx="133" cy="56.41" r="7.5"/>
      </g>
      <path class="cls-1" d="M4,178.47v15c0,5.52,4.48,10,10,10h180c5.52,0,10-4.48,10-10v-15"/>
      <path class="cls-1" d="M175,106.47h3c14.36,0,26,11.64,26,26s-11.64,26-26,26H30c-14.36,0-26-11.64-26-26s11.38-25.73,25.52-25.99h0c-2.88-5.38-4.51-11.5-4.51-18,0-21.53,17.91-41.01,40-41.01h3"/>
    </g>
  </g>
</svg>