<?xml version="1.0" encoding="UTF-8"?>
<svg id="Layer_2" data-name="Layer 2" xmlns="http://www.w3.org/2000/svg" viewBox="0 0 210.99 208">
  <defs>
    <style>
      .cls-1 {
        stroke-width: 0px;
      }

      .cls-1, .cls-2 {
        fill: #000;
      }

      .cls-3 {
        fill: none;
        stroke-width: 8px;
      }

      .cls-3, .cls-2 {
        stroke: #000;
        stroke-miterlimit: 10;
      }

      .cls-2 {
        stroke-width: 7px;
      }
    </style>
  </defs>
  <g id="Icons_Updated_" data-name="Icons (Updated)">
    <g>
      <circle class="cls-1" cx="203.49" cy="102.74" r="7.5"/>
      <path class="cls-3" d="M202.5,86.63C194.28,39.68,153.3,4,104,4,48.77,4,4,48.77,4,104s44.77,100,100,100c49.3,0,90.28-35.68,98.5-82.63"/>
      <path class="cls-2" d="M157.19,66.99c-.6-.49-1.49-.42-1.99.19l-58.57,70.73-39.49-34.23c-.59-.51-1.48-.45-1.99.14-.51.59-.45,1.48.14,1.99l40.58,35.18c.26.22.59.35.92.35.04,0,.08,0,.12,0,.38-.03.73-.21.97-.51l59.5-71.85c.5-.6.41-1.49-.19-1.99Z"/>
    </g>
  </g>
</svg>