<?xml version="1.0" encoding="UTF-8"?>
<svg id="Layer_2" data-name="Layer 2" xmlns="http://www.w3.org/2000/svg" viewBox="0 0 197.64 197.64">
  <defs>
    <style>
      .cls-1 {
        fill: none;
        stroke: #000;
        stroke-miterlimit: 10;
        stroke-width: 8px;
      }

      .cls-2 {
        fill: #000;
        stroke-width: 0px;
      }
    </style>
  </defs>
  <g id="Icons_Updated_" data-name="Icons (Updated)">
    <g>
      <g>
        <line class="cls-1" x1="58.97" y1="58.97" x2="34.45" y2="34.45"/>
        <line class="cls-1" x1="13.48" y1="75.11" x2="46.67" y2="75.11"/>
        <line class="cls-1" x1="75.11" y1="13.48" x2="75.11" y2="46.67"/>
        <line class="cls-1" x1="138.64" y1="138.64" x2="163.23" y2="163.23"/>
        <line class="cls-1" x1="122.52" y1="184.16" x2="122.52" y2="150.97"/>
        <line class="cls-1" x1="184.16" y1="122.52" x2="150.97" y2="122.52"/>
        <path class="cls-1" d="M148.16,101.63l34.68-34.68c6.92-6.92,10.8-16.3,10.8-26.08h0c0-20.37-16.51-36.88-36.88-36.88h0c-9.78,0-19.16,3.89-26.08,10.8l-34.61,34.61"/>
        <path class="cls-1" d="M49.48,96l-34.68,34.68c-6.92,6.92-10.8,16.3-10.8,26.08h0c0,20.37,16.51,36.88,36.88,36.88h0c9.78,0,19.16-3.89,26.08-10.8l34.73-34.73"/>
      </g>
      <circle class="cls-2" cx="98.66" cy="100.65" r="7.5"/>
    </g>
  </g>
</svg>