<?xml version="1.0" encoding="UTF-8"?>
<svg id="Layer_2" data-name="Layer 2" xmlns="http://www.w3.org/2000/svg" viewBox="0 0 211.76 211.76">
  <defs>
    <style>
      .cls-1 {
        fill: #000;
        stroke-width: 0px;
      }
    </style>
  </defs>
  <g id="Icons_Updated_" data-name="Icons (Updated)">
    <g>
      <circle class="cls-1" cx="105.43" cy="108.96" r="7.5"/>
      <g>
        <path class="cls-1" d="M134.36,61.01c-1.53-.97-1.98-3-1.01-4.53.96-1.52,2.99-1.98,4.52-1.01,8.48,5.38,15.5,12.87,20.36,21.71,4.69,8.53,7.35,18.3,7.35,28.7,0,16.49-6.68,31.42-17.48,42.22-10.82,10.8-25.73,17.48-42.22,17.48s-31.43-6.68-42.22-17.48c-10.8-10.8-17.48-25.73-17.48-42.22,0-10.4,2.66-20.18,7.35-28.7,4.86-8.85,11.88-16.32,20.36-21.71,1.53-.97,3.56-.51,4.52,1.01.97,1.53.53,3.56-1.01,4.53-7.55,4.8-13.82,11.45-18.13,19.31-4.16,7.58-6.53,16.29-6.53,25.56,0,14.68,5.94,27.97,15.57,37.58,9.61,9.62,22.9,15.56,37.58,15.56s27.96-5.94,37.58-15.56c9.62-9.61,15.57-22.9,15.57-37.58,0-9.27-2.37-17.98-6.53-25.56-4.32-7.86-10.58-14.51-18.13-19.31h0Z"/>
        <path class="cls-1" d="M102.6,33.07c0-2.13,1.47-3.87,3.28-3.87s3.28,1.74,3.28,3.87v57.04c0,2.15-1.47,3.89-3.28,3.89s-3.28-1.74-3.28-3.89v-57.04Z"/>
        <path class="cls-1" d="M105.88,0c29.24,0,55.72,11.85,74.87,31.01,19.16,19.17,31.01,45.64,31.01,74.87s-11.85,55.72-31.01,74.87c-19.16,19.16-45.63,31.01-74.87,31.01s-55.7-11.85-74.87-31.01C11.85,161.6,0,135.12,0,105.88S11.85,50.18,31.01,31.01C50.18,11.85,76.64,0,105.88,0h0ZM176.11,35.65c-17.96-17.96-42.8-29.09-70.23-29.09s-52.27,11.13-70.23,29.09C17.67,53.63,6.56,78.46,6.56,105.88s11.11,52.27,29.09,70.23c17.96,17.98,42.8,29.09,70.23,29.09s52.27-11.11,70.23-29.09c17.98-17.96,29.09-42.8,29.09-70.23s-11.11-52.25-29.09-70.23h0Z"/>
      </g>
    </g>
  </g>
</svg>