<?xml version="1.0" encoding="UTF-8"?>
<svg id="Layer_2" data-name="Layer 2" xmlns="http://www.w3.org/2000/svg" viewBox="0 0 208.85 208.85">
  <defs>
    <style>
      .cls-1 {
        fill: none;
        stroke: #000;
        stroke-linecap: round;
        stroke-linejoin: round;
        stroke-width: 8px;
      }

      .cls-2 {
        fill: #000;
        stroke-width: 0px;
      }
    </style>
  </defs>
  <g id="Icons_Updated_" data-name="Icons (Updated)">
    <g>
      <g>
        <path class="cls-1" d="M66.5,104.48c-9.72.29-18.51,4.31-24.93,10.73l-26.78,26.78c-6.66,6.66-10.78,15.87-10.78,26.04,0,20.34,16.49,36.82,36.82,36.82,10.17,0,19.37-4.12,26.04-10.78l26.78-26.78c6.42-6.42,10.44-15.21,10.73-24.93"/>
        <line class="cls-1" x1="80.25" y1="129.56" x2="143.47" y2="66.1"/>
        <path class="cls-1" d="M142.35,104.37c9.73-.29,18.51-4.31,24.93-10.73l26.78-26.78c6.66-6.66,10.78-15.87,10.78-26.04,0-20.34-16.49-36.82-36.82-36.82-10.17,0-19.37,4.12-26.04,10.78l-26.78,26.78c-6.42,6.42-10.44,15.21-10.73,24.93"/>
      </g>
      <circle class="cls-2" cx="67.86" cy="142.06" r="7.5"/>
    </g>
  </g>
</svg>