<svg
  width="244" height="24">
  <g fill="none" fill-rule="evenodd">
    <g transform="translate(0 1.814)">
      <path fill="#FFF" d="M15.977 7.327c-1.36-1.534-3.067-2.287-5.123-2.287-1.794 0-3.3.608-4.544 1.824-1.245 1.216-1.853 2.722-1.853 4.544 0 1.824.608 3.329 1.824 4.544 1.245 1.187 2.75 1.795 4.573 1.795 2.084 0 3.792-.782 5.152-2.315l3.04 2.576c-2.055 2.401-4.979 3.79-8.192 3.79-3.04 0-5.586-.983-7.699-2.951C1.041 16.849 0 14.389 0 11.408c0-2.98 1.042-5.441 3.156-7.439C5.268 1.973 7.815.99 10.854.99c3.213 0 6.108 1.418 8.162 3.762l-3.04 2.576z" mask="url(#prefix__b)"/>
    </g>
    <g transform="translate(20.816 2.855)">
      <path fill="#FFF" d="M.14.266h4.313v14.762c0 1.302.492 1.88 1.678 1.88.406 0 .753-.028 1.042-.115v3.821c-.491.144-1.187.203-2.055.203-3.328 0-4.978-1.708-4.978-5.124V.266z" mask="url(#prefix__d)"/>
    </g>
    <path fill="#FFF" d="M40.031 14.322c0-1.36-1.418-2.431-3.155-2.431-1.881 0-3.414 1.07-3.531 2.431h6.686zm-11.056 1.65c0-2.287.752-4.14 2.228-5.529C32.68 9.026 34.59 8.33 36.876 8.33c2.229 0 4.023.724 5.413 2.142 1.39 1.419 2.083 3.156 2.083 5.268 0 .492-.028.955-.057 1.39H33.288c.086 1.736 1.591 2.865 3.878 2.865 1.36 0 2.547-.463 3.56-1.418l2.517 2.402c-1.707 1.766-3.82 2.663-6.28 2.663-2.402 0-4.312-.694-5.79-2.055-1.475-1.39-2.198-3.213-2.198-5.5v-.115zm27.613 2.634c.753-.723 1.128-1.592 1.128-2.605a3.38 3.38 0 00-1.128-2.576c-.723-.724-1.62-1.071-2.691-1.071-1.042 0-1.91.347-2.635 1.07-.723.695-1.07 1.564-1.07 2.577s.347 1.882 1.07 2.605c.725.694 1.593 1.042 2.635 1.042 1.07 0 1.968-.348 2.691-1.042m-8.653-7.96c1.388-1.476 3.125-2.2 5.18-2.2 2.2 0 3.907.898 4.341 2.172V8.707h4.313v9.465c0 1.157.29 1.62 1.071 1.62.202 0 .463-.029.724-.058v3.59c-.463.145-1.1.231-1.94.231-.955 0-1.765-.174-2.372-.521-.667-.434-1.1-.955-1.304-1.563-.954 1.419-2.546 2.113-4.833 2.113-2.055 0-3.792-.723-5.18-2.171-1.362-1.476-2.056-3.27-2.056-5.412 0-2.113.694-3.907 2.056-5.355m17.54 12.649V8.707h4.313v1.997c.665-1.476 2.229-2.315 4.226-2.315.29 0 .665.028 1.128.087v4.051a7.46 7.46 0 00-1.447-.144c-2.46 0-3.907 1.39-3.907 3.792v7.12h-4.313z"/>
    <path id="logo-dot" fill="#5DADDF" d="M77.806 19.56c.956.927.956 2.374 0 3.3-.926.927-2.374.927-3.328 0a2.306 2.306 0 010-3.3c.954-.925 2.402-.925 3.328 0z"/>
    <path fill="#FFF" d="M85.592 19.445h3.85c1.505 0 2.604-1.07 2.604-2.46 0-1.389-1.099-2.373-2.633-2.373h-3.82v4.833zm0-8.278h2.924c1.273 0 2.171-.897 2.171-2.142 0-1.186-.898-2.084-2.143-2.084h-2.952v4.226zm-4.37 12.128V3.121h8.016c1.622 0 2.982.492 4.082 1.476 1.129.955 1.68 2.2 1.68 3.676 0 1.939-.956 3.473-2.577 4.052 2.576.463 4.052 2.431 4.052 5.007 0 1.708-.579 3.155-1.765 4.284-1.159 1.128-2.605 1.679-4.37 1.679h-9.118zm27.728-4.689c.753-.723 1.13-1.592 1.13-2.605a3.38 3.38 0 00-1.13-2.576c-.723-.724-1.62-1.071-2.69-1.071-1.043 0-1.912.347-2.635 1.07-.724.695-1.071 1.564-1.071 2.577s.347 1.882 1.07 2.605c.724.694 1.593 1.042 2.635 1.042 1.071 0 1.968-.348 2.692-1.042m-8.655-7.96c1.39-1.476 3.126-2.2 5.181-2.2 2.2 0 3.908.898 4.342 2.172V8.707h4.313v9.465c0 1.157.29 1.62 1.07 1.62.204 0 .464-.029.724-.058v3.59c-.463.145-1.099.231-1.939.231-.955 0-1.765-.174-2.373-.521-.666-.434-1.1-.955-1.303-1.563-.954 1.419-2.547 2.113-4.834 2.113-2.055 0-3.791-.723-5.18-2.171-1.361-1.476-2.055-3.27-2.055-5.412 0-2.113.694-3.907 2.054-5.355m17.542 12.649V8.707h4.312v1.823c.609-1.273 2.23-2.14 4.198-2.14 3.502 0 5.527 2.256 5.527 6.047v3.677c0 1.129.231 1.534.956 1.534h.29l.173-.03v3.648c-.348.144-.985.203-1.882.203-2.576 0-3.849-1.39-3.849-4.169v-4.34c0-1.707-.898-2.75-2.605-2.75-1.62 0-2.808 1.187-2.808 2.895v8.19h-4.312zm17.482 0V3.12h4.313v11.144l4.805-5.558h5.007l-5.818 6.6 6.31 7.988h-4.862l-4.226-5.383-1.216 1.302v4.08z"/>
    <g transform="translate(145.714 -.268)">
      <path fill="#FFF" d="M3.204 3.237h.666c.323 0 .57-.265.57-.628a.576.576 0 00-.57-.589h-.666v1.217zm-.533 1.75v-3.48H3.89c.665 0 1.103.475 1.103 1.084 0 .475-.209.798-.609 1.008l.837 1.388h-.627l-.78-1.274h-.609v1.274h-.533zm3.634-1.674c0-1.502-1.085-2.548-2.55-2.548-1.444 0-2.51 1.046-2.51 2.548 0 1.464 1.066 2.51 2.51 2.51 1.465 0 2.55-1.046 2.55-2.51zm-4.699 2.15C1.017 4.891.732 4.17.732 3.312c0-.856.285-1.578.875-2.148C2.196.593 2.9.309 3.756.309c.856 0 1.578.284 2.168.856.59.57.894 1.292.894 2.148 0 .857-.304 1.579-.894 2.15-.59.57-1.312.855-2.168.855-.856 0-1.56-.284-2.15-.856z" mask="url(#prefix__f)"/>
    </g>
    <path id="logo-developer-text" fill="#5DADDF" fill-rule="nonzero" d="M160.96 22.944v-1.536h-.576c-.576 0-.832-.432-.832-.944v-2.448c0-.784-.208-1.344-.64-1.68a2.056 2.056 0 00-.768-.432c.288-.112.544-.256.768-.448.432-.336.64-.896.64-1.68v-2.448c0-.512.256-.944.832-.944h.576V8.848h-1.28c-1.104 0-1.92.848-1.92 2.048v3.008c0 .64-.208 1.072-.64 1.296-.24.112-.48.176-.72.192v.992h.112c.128.016.4.096.608.208.432.224.64.656.64 1.296v3.008c0 1.2.816 2.048 1.92 2.048h1.28zM166.8 20c1.84 0 3.28-.512 4.304-1.52 1.024-1.008 1.536-2.352 1.536-4.032 0-1.68-.512-3.024-1.552-4.048-1.024-1.04-2.464-1.552-4.304-1.552H162.8V20h4zm-.144-1.808H164.8v-7.536h1.84c2.8 0 4 1.44 4 3.792 0 2.288-1.216 3.744-3.984 3.744zm11.392 2.048c1.2 0 2.192-.272 2.976-.816v-1.792c-.672.624-1.632.928-2.896.928-1.424 0-2.368-.816-2.432-2.096h6.176c.016-.208.032-.448.032-.688 0-1.136-.368-2.096-1.104-2.864-.72-.784-1.664-1.168-2.832-1.168-1.216 0-2.224.384-3.008 1.168-.784.768-1.168 1.792-1.168 3.056v.08c0 1.264.384 2.288 1.168 3.056.784.752 1.824 1.136 3.088 1.136zm1.904-5.136h-4.208c.032-.48.256-.88.688-1.216a2.434 2.434 0 011.536-.512c.56 0 1.024.176 1.408.512.384.336.576.752.576 1.216zm6.784 5.408l4.32-8.576h-1.984l-2.336 4.8-2.336-4.8h-2l4.336 8.576zm9.12-.272c1.2 0 2.192-.272 2.976-.816v-1.792c-.672.624-1.632.928-2.896.928-1.424 0-2.368-.816-2.432-2.096h6.176c.016-.208.032-.448.032-.688 0-1.136-.368-2.096-1.104-2.864-.72-.784-1.664-1.168-2.832-1.168-1.216 0-2.224.384-3.008 1.168-.784.768-1.168 1.792-1.168 3.056v.08c0 1.264.384 2.288 1.168 3.056.784.752 1.824 1.136 3.088 1.136zm1.904-5.136h-4.208c.032-.48.256-.88.688-1.216a2.434 2.434 0 011.536-.512c.56 0 1.024.176 1.408.512.384.336.576.752.576 1.216zM202.928 20V8.848h-1.92V20h1.92zm5.744.24c1.232 0 2.272-.416 3.12-1.232.848-.816 1.28-1.84 1.28-3.04s-.432-2.224-1.28-3.04c-.848-.816-1.888-1.232-3.12-1.232-1.232 0-2.272.416-3.12 1.232-.848.816-1.28 1.84-1.28 3.04s.432 2.224 1.28 3.04c.848.816 1.888 1.232 3.12 1.232zm0-1.744c-.72 0-1.312-.24-1.792-.72-.464-.496-.704-1.088-.704-1.808s.24-1.312.704-1.792c.48-.496 1.072-.736 1.792-.736.704 0 1.296.24 1.776.736.48.48.72 1.072.72 1.792s-.24 1.312-.72 1.808c-.48.48-1.072.72-1.776.72zm7.664 4.592v-4.256c.272.784 1.248 1.344 2.576 1.344 1.136 0 2.096-.4 2.864-1.2.784-.816 1.168-1.808 1.168-3.008s-.384-2.192-1.168-2.992c-.768-.816-1.728-1.216-2.864-1.216-1.328 0-2.304.56-2.576 1.344v-1.168h-1.92v11.152h1.92zm2.32-4.656c-.688 0-1.28-.24-1.76-.704-.464-.464-.704-1.056-.704-1.76s.24-1.296.704-1.76a2.453 2.453 0 011.76-.704c.688 0 1.248.24 1.696.704.464.464.688 1.056.688 1.76s-.224 1.296-.688 1.76c-.448.464-1.008.704-1.696.704zm9.52 1.808c1.2 0 2.192-.272 2.976-.816v-1.792c-.672.624-1.632.928-2.896.928-1.424 0-2.368-.816-2.432-2.096H232c.016-.208.032-.448.032-.688 0-1.136-.368-2.096-1.104-2.864-.72-.784-1.664-1.168-2.832-1.168-1.216 0-2.224.384-3.008 1.168-.784.768-1.168 1.792-1.168 3.056v.08c0 1.264.384 2.288 1.168 3.056.784.752 1.824 1.136 3.088 1.136zm1.904-5.136h-4.208c.032-.48.256-.88.688-1.216a2.434 2.434 0 011.536-.512c.56 0 1.024.176 1.408.512.384.336.576.752.576 1.216zM235.232 20v-4.24c0-1.328.848-2.16 2.176-2.16.288 0 .56.032.8.08v-1.856a2.981 2.981 0 00-.576-.048c-1.136 0-2.016.512-2.4 1.36v-1.2h-1.904V20h1.904zm5.376 2.944c1.104 0 1.92-.848 1.92-2.048v-3.008c0-.64.208-1.072.64-1.296.24-.128.48-.192.72-.208v-.992h-.112c-.128-.016-.4-.08-.608-.192-.432-.224-.64-.656-.64-1.296v-3.008c0-1.2-.816-2.048-1.92-2.048h-1.28v1.536h.576c.576 0 .832.432.832.944v2.448c0 .784.208 1.344.64 1.68.224.192.48.336.752.448-.272.08-.512.224-.752.432-.432.336-.64.896-.64 1.68v2.448c0 .512-.256.944-.832.944h-.576v1.536h1.28z"/>
  </g>
</svg>
