<svg width="44" height="44" viewBox="0 0 44 44" xmlns="http://www.w3.org/2000/svg"><g fill="#ffffff" fill-rule="evenodd"><path d="M42.276 20.759h-.003l-21.724.054a1.552 1.552 0 0 0 .003 3.103h.003l21.724-.054a1.552 1.552 0 0 0-.003-3.103M42.114 16.103c.95-.001 1.715-.698 1.714-1.556-.002-.855-.771-1.547-1.717-1.547l-14.501.054c-.95.002-1.715.699-1.713 1.557.001.855.77 1.547 1.716 1.547l14.501-.055zM19.962 13.112a1.559 1.559 0 0 0-.512.341c-.28.295-.45.683-.45 1.086 0 .42.155.807.45 1.102.155.155.326.264.512.341.186.078.388.124.59.124a1.55 1.55 0 0 0 1.427-.962c.078-.186.124-.388.124-.605a1.608 1.608 0 0 0-.45-1.086 1.59 1.59 0 0 0-1.69-.341zM42.62 28.517h-.005l-11.034.055c-.763.003-1.377.7-1.374 1.557.003.857.62 1.546 1.38 1.546h.005l11.034-.054c.763-.003 1.377-.702 1.374-1.558-.003-.857-.62-1.546-1.38-1.546"/></g></svg>
