<?xml version="1.0" encoding="UTF-8"?>
<svg id="Layer_2" data-name="Layer 2" xmlns="http://www.w3.org/2000/svg" viewBox="0 0 211.45 179.53">
  <defs>
    <style>
      .cls-1 {
        fill: #000;
        stroke: #000;
        stroke-miterlimit: 10;
        stroke-width: 2.83px;
      }
    </style>
  </defs>
  <g id="Icons_Updated_" data-name="Icons (Updated)">
    <g>
      <path class="cls-1" d="M210.03,20.56c-.36-10.64-8.46-18.8-19.13-19.12-1.57-.05-3.15,0-4.73,0H27.4c-2.09,0-4.2-.05-6.29,0C12.68,1.65,5.18,6.76,2.64,14.96c-2.12,6.84-.85,15.63-.85,22.65v43.91c0,25.3-.11,50.61,0,75.91.05,11.95,8.43,20.47,20.43,20.52,8.27.04,16.53,0,24.8,0h131.67c6.87,0,15.17,1.06,21.39-2.35,10.39-5.7,9.94-16.21,9.94-26.27V20.56c0-3.17-4.93-3.18-4.93,0v136.15c0,5.15-1.2,9.99-5.53,13.34-3.34,2.58-7.11,2.97-11.1,2.97H34.99c-5.73,0-13.35,1.16-18.89-.83-10.93-3.93-9.38-15.51-9.38-24.69V27.01c0-2.11-.07-4.23,0-6.34.27-8.18,6.37-14.06,14.49-14.3,6.46-.19,12.96,0,19.42,0h87.59c20.7,0,41.41-.23,62.11,0,8.14.09,14.49,5.96,14.77,14.2.11,3.16,5.03,3.18,4.93,0Z"/>
      <path class="cls-1" d="M4.84,42.8h202.16c3.17,0,3.18-4.93,0-4.93H4.84c-3.17,0-3.18,4.93,0,4.93h0Z"/>
      <g>
        <path class="cls-1" d="M30.46,22.21c-.15-2.72-2.19-5.03-5.03-5.03s-4.99,2.3-5.03,5.03c-.04,2.71,2.24,4.91,4.89,5.02,2.89.12,5.02-2.27,5.17-5.02.07-1.33-1.18-2.46-2.46-2.46-1.39,0-2.39,1.13-2.46,2.46.01-.24,0,.07-.04.16.08-.14.17-.19.01-.09-.24.17,0,.04.03,0,.12-.09-.39.03-.1.03.25,0-.1.04-.16-.04.01.01.33.25.09.01-.2-.2-.04-.02,0,.03.07.08-.03-.38-.03-.1s-.02-.39-.06.02c0-.09.3-.28.06-.1-.1.08.28-.03.16-.04-.37-.05.35,0-.07-.05.07,0,.31.33.1.06-.07-.1.04.39.03.1.07,1.33,1.08,2.46,2.46,2.46,1.28,0,2.54-1.13,2.46-2.46Z"/>
        <path class="cls-1" d="M48.69,22.21c-.15-2.72-2.19-5.03-5.03-5.03s-4.99,2.3-5.03,5.03c-.04,2.71,2.24,4.91,4.89,5.02,2.89.12,5.02-2.27,5.17-5.02.07-1.33-1.18-2.46-2.46-2.46-1.39,0-2.39,1.13-2.46,2.46.01-.24,0,.07-.04.16.08-.14.17-.19.01-.09-.24.17,0,.04.03,0,.12-.09-.39.03-.1.03.25,0-.1.04-.16-.04.01.01.33.25.09.01-.2-.2-.04-.02,0,.03.07.08-.03-.38-.03-.1s-.02-.39-.06.02c0-.09.3-.28.06-.1-.1.08.28-.03.16-.04-.37-.05.35,0-.07-.05.07,0,.31.33.1.06-.07-.1.04.39.03.1.07,1.33,1.08,2.46,2.46,2.46,1.28,0,2.54-1.13,2.46-2.46Z"/>
        <path class="cls-1" d="M66.92,22.21c-.15-2.72-2.19-5.03-5.03-5.03s-4.99,2.3-5.03,5.03c-.04,2.71,2.24,4.91,4.89,5.02,2.89.12,5.02-2.27,5.17-5.02.07-1.33-1.18-2.46-2.46-2.46-1.39,0-2.39,1.13-2.46,2.46.01-.24,0,.07-.04.16.08-.14.17-.19.01-.09-.24.17,0,.04.03,0,.12-.09-.39.03-.1.03.25,0-.1.04-.16-.04.01.01.33.25.09.01-.2-.2-.04-.02,0,.03.07.08-.03-.38-.03-.1s-.02-.39-.06.02c0-.09.3-.28.06-.1-.1.08.28-.03.16-.04-.37-.05.35,0-.07-.05.07,0,.31.33.1.06-.07-.1.04.39.03.1.07,1.33,1.08,2.46,2.46,2.46,1.28,0,2.54-1.13,2.46-2.46Z"/>
      </g>
      <g>
        <g>
          <g>
            <path class="cls-1" d="M72.14,83.13c-7.39,7.39-14.78,14.78-22.16,22.16-2.25,2.25,1.24,5.73,3.48,3.48,7.39-7.39,14.78-14.78,22.16-22.16,2.25-2.25-1.24-5.73-3.48-3.48h0Z"/>
            <path class="cls-1" d="M75.62,127.46c-7.39-7.39-14.78-14.78-22.16-22.16-2.25-2.25-5.73,1.24-3.48,3.48,7.39,7.39,14.78,14.78,22.16,22.16,2.25,2.25,5.73-1.24,3.48-3.48h0Z"/>
          </g>
          <g>
            <path class="cls-1" d="M136.21,86.62c7.39,7.39,14.78,14.78,22.16,22.16,2.25,2.25,5.73-1.24,3.48-3.48-7.39-7.39-14.78-14.78-22.16-22.16-2.25-2.25-5.73,1.24-3.48,3.48h0Z"/>
            <path class="cls-1" d="M139.69,130.94c7.39-7.39,14.78-14.78,22.16-22.16,2.25-2.25-1.24-5.73-3.48-3.48-7.39,7.39-14.78,14.78-22.16,22.16-2.25,2.25,1.24,5.73,3.48,3.48h0Z"/>
          </g>
        </g>
        <path class="cls-1" d="M90.45,142.8c10.25-20.18,20.5-40.36,30.75-60.55,1.48-2.9,2.95-5.81,4.43-8.71,1.43-2.82-2.82-5.32-4.25-2.49-10.25,20.18-20.5,40.36-30.75,60.55-1.48,2.9-2.95,5.81-4.43,8.71-1.43,2.82,2.82,5.32,4.25,2.49h0Z"/>
      </g>
    </g>
  </g>
</svg>