<svg width="13" height="13" viewBox="0 0 13 13" xmlns="http://www.w3.org/2000/svg" xmlns:xlink="http://www.w3.org/1999/xlink"><defs><path d="M17.76 8.001a.986.986 0 0 1-1-1c0-.13.03-.26.08-.38s.12-.23.21-.33c.05-.04.1-.08.16-.12.05-.04.11-.07.17-.09.06-.03.12-.05.19-.06a1 1 0 0 1 .9.27c.09.1.16.21.21.33a.995.995 0 0 1-.21 1.09.99.99 0 0 1-.71.29zm.709 9.056a.999.999 0 1 1-1.414 1.414l-4.674-4.674-4.674 4.674a.997.997 0 0 1-1.414 0 1 1 0 0 1 0-1.414l4.674-4.674-4.674-4.674a1 1 0 0 1 1.414-1.414l4.674 4.674 1.674-1.674a1 1 0 0 1 1.414 1.414l-1.674 1.674 4.674 4.674z" id="a"/></defs><g transform="translate(-6 -6)" fill="none" fill-rule="evenodd"><mask id="b" fill="#fff"><use xlink:href="#a"/></mask><use fill="#000" xlink:href="#a"/><g mask="url(#b)" fill="#69B0E1"><path d="M0 0h24v24H0z"/></g></g></svg>
